<svg xmlns="http://www.w3.org/2000/svg" width="114.166" height="91.39" viewBox="0 0 114.166 91.39"><path d="M69.356,32.366H68.5A12.5,12.5,0,0,0,55.827,44.81v.514A12.444,12.444,0,0,0,67.815,57.711H68.5A12.558,12.558,0,0,0,81.344,45.666v-.913A12.5,12.5,0,0,0,69.356,32.366Zm-17-3.473A22.833,22.833,0,0,1,68.5,22.2h.856A22.833,22.833,0,0,1,91.333,44.753v1.941A22.833,22.833,0,0,1,68.5,68.442h-.856A22.833,22.833,0,0,1,45.667,45.609v-.571A22.833,22.833,0,0,1,52.354,28.893ZM112.8,113.538h12.786L114.795,91.9A22.835,22.835,0,0,0,94.359,79.288H42.641A22.833,22.833,0,0,0,22.205,91.9L11.417,113.6H24.2L32.48,97.041a11.417,11.417,0,0,1,10.446-6.279H94.3a11.416,11.416,0,0,1,10.218,6.279Z" transform="translate(-11.417 -22.205)" fill="#fff" fill-rule="evenodd"/></svg>