<svg xmlns="http://www.w3.org/2000/svg" width="114.166" height="114.166" viewBox="0 0 114.166 114.166"><path d="M114.167,11.417H102.75V22.833h11.417v16.44a17.583,17.583,0,0,1-13.7,17.467,17.125,17.125,0,0,1-20.55-16.782V22.833H91.333V11.417H79.917A11.417,11.417,0,0,0,68.5,22.833V38.759A29.569,29.569,0,0,0,91.333,67.815v17.81a28.542,28.542,0,0,1-57.083,0V67.473a17.125,17.125,0,1,0-11.417,0V85.625a39.958,39.958,0,1,0,79.917,0V67.872a28.54,28.54,0,0,0,22.833-27.914V22.833a11.417,11.417,0,0,0-11.416-11.417ZM28.542,45.667a5.709,5.709,0,1,1-4.036,1.672A5.708,5.708,0,0,1,28.542,45.667Z" transform="translate(-11.417 -11.417)" fill="#fff"/></svg>