<svg xmlns="http://www.w3.org/2000/svg" width="61.57" height="32" viewBox="0 0 61.57 32"><path d="M47.815,0H13.8L0,16.051,13.811,32h34L61.57,16.107ZM14.589,1.614H47.037l12.4,14.538-12.4,14.335H14.589L2.131,16.107ZM40.182,11.638a2.752,2.752,0,0,1,1.6.458c.926.687,1.154,1.339,1.154,3.17v6.2H40.914l.011-6.134v-.067a2.363,2.363,0,0,0-.24-1.34,1.259,1.259,0,0,0-1.04-.492,1.129,1.129,0,0,0-1.166,1.053v6.981H36.456V8.1h2.023v4.1A2.863,2.863,0,0,1,40.182,11.638ZM27.488,15.106c-.281-2.76-1.879-3.359-3.184-3.359-1.856,0-2.981,1.164-3.184,3.359a15.135,15.135,0,0,0-.056,1.53c-.01.678.034,1.249.052,1.469l0,.06c.124,2.051,1.316,3.3,3.184,3.3s3.06-1.275,3.195-3.3c.011-.144.045-.776.045-1.53C27.544,16.292,27.522,15.372,27.488,15.106Zm-1.924,1.53a16.059,16.059,0,0,1-.054,1.709l0,.02c-.067.709-.371,1.452-1.2,1.452s-1.159-.8-1.192-1.485a12.479,12.479,0,0,1-.056-1.7,15.336,15.336,0,0,1,.056-1.8A1.269,1.269,0,0,1,24.3,13.41c.821,0,1.192.709,1.2,1.419v.014C25.517,14.936,25.564,15.48,25.564,16.635Zm23.049,1.751a2.811,2.811,0,0,0,.023-.321h1.94c-.137,2.15-1.358,3.4-3.184,3.4a3.149,3.149,0,0,1-3.183-3.3c-.012-.144-.057-.776-.057-1.53a12,12,0,0,1,.056-1.518v-.012c.217-2.206,1.358-3.359,3.183-3.359a2.86,2.86,0,0,1,2.3,1.042,4.307,4.307,0,0,1,.879,2.317c.034.543.046.8.046.953.011.388.011,1.042.011,1.042H46.126c0,.626.021.9.036,1.1,0,.053.008.1.01.144.057.732.376,1.474,1.221,1.474C48.374,19.817,48.556,18.841,48.613,18.387Zm-2.47-3.146-.006.23h2.522c0-.189-.011-.366-.034-.643-.034-.51-.262-1.43-1.232-1.419-.821,0-1.175.643-1.232,1.419C46.151,14.925,46.149,15,46.143,15.241Zm-26.6,2.212.205,3.2a4.073,4.073,0,0,0,.1.816h-2a5.653,5.653,0,0,1-.1-.805l-.206-3.031c-.114-1.543-.834-2.091-1.473-2.091H14.96l-.011,5.927H12.962V8.506h3.083c1.9.022,3.506.917,3.506,3.445a2.976,2.976,0,0,1-1.245,2.785C19.072,15.172,19.448,16.022,19.54,17.453Zm-3.632-7.269H14.96v3.68h1.051a1.518,1.518,0,0,0,1.53-1.566,2.052,2.052,0,0,0,.011-.313c0-.084,0-.145-.007-.2h0c0-.038,0-.071,0-.1A1.434,1.434,0,0,0,15.908,10.184Zm17.319,8.147a2.812,2.812,0,0,0,.023-.355h1.99c0,.025,0,.051,0,.078s-.006.068-.006.11c-.192,2.15-1.266,3.314-3.211,3.3-1.877,0-3.076-1.253-3.2-3.3,0-.016,0-.036,0-.06-.017-.22-.062-.791-.052-1.469a15.077,15.077,0,0,1,.056-1.53c.2-2.195,1.334-3.359,3.2-3.359,1.312,0,2.985.654,3.211,3.337,0,.022,0,.052,0,.089,0,.057.007.13.007.21H33.262c-.009-.313-.027-.481-.032-.535,0-.011,0-.017,0-.019-.011-.709-.362-1.43-1.21-1.419-.814,0-1.131.621-1.2,1.43l0,.027a13.277,13.277,0,0,0-.053,1.769c0,.313,0,.56.006.762,0,.5,0,.718.028.979.068.61.4,1.441,1.221,1.441C32.922,19.817,33.171,19.052,33.228,18.331Z" fill="#06c" fill-rule="evenodd"/></svg>